<svg xmlns="http://www.w3.org/2000/svg" shape-rendering="crispEdges" viewBox="0 -.5 32 32"><path stroke="#000" d="M15 0h2m-3 1h1m2 0h1m-5 1h1m4 0h1M9 3h4m2 0h2m2 0h4M7 4h2m2 0h1m2 0h1m2 0h1m2 0h1m2 0h2M6 5h1m2 0h2m2 0h1m1 0h2m1 0h1m2 0h2m2 0h1M5 6h1m1 0h2m1 0h1m1 0h1m1 0h4m1 0h1m1 0h1m1 0h2m1 0h1M5 7h1m1 0h7m4 0h7m1 0h1M4 8h1m1 0h1m1 0h2m2 0h1m2 0h2m2 0h1m2 0h2m1 0h1m1 0h1M4 9h1m1 0h3m1 0h2m3 0h2m3 0h2m1 0h3m1 0h1M4 10h2m2 0h1m1 0h3m1 0h1m2 0h1m1 0h3m1 0h1m2 0h2M4 11h1m2 0h3m1 0h2m1 0h1m2 0h1m1 0h2m1 0h3m2 0h1M3 12h1m2 0h1m1 0h1m3 0h2m1 0h2m1 0h2m3 0h1m1 0h1m2 0h1M2 13h1m2 0h1m1 0h1m2 0h1m1 0h1m1 0h1m2 0h1m1 0h1m1 0h1m2 0h1m1 0h1m2 0h1M1 14h1m2 0h1m1 0h2m1 0h1m1 0h1m1 0h1m1 0h2m1 0h1m1 0h1m1 0h1m1 0h2m1 0h1m2 0h1M0 15h1m2 0h1m1 0h3m1 0h2m1 0h1m1 0h1m2 0h1m1 0h1m1 0h2m1 0h3m1 0h1m2 0h1M0 16h1m2 0h1m1 0h3m1 0h1m1 0h2m1 0h1m2 0h1m1 0h2m1 0h1m1 0h3m1 0h1m2 0h1M1 17h1m2 0h1m1 0h2m1 0h1m1 0h1m1 0h1m1 0h2m1 0h1m1 0h1m1 0h1m1 0h2m1 0h1m2 0h1M2 18h1m2 0h1m1 0h1m2 0h1m1 0h1m1 0h4m1 0h1m1 0h1m2 0h1m1 0h1m2 0h1M3 19h1m2 0h1m1 0h1m3 0h2m1 0h2m1 0h2m3 0h1m1 0h1m2 0h1M4 20h1m2 0h3m2 0h1m1 0h1m2 0h1m1 0h1m2 0h3m2 0h1M4 21h2m2 0h1m1 0h2m1 0h2m2 0h2m1 0h2m1 0h1m2 0h2M4 22h1m1 0h3m1 0h2m2 0h4m2 0h2m1 0h3m1 0h1M4 23h1m1 0h1m1 0h2m2 0h1m2 0h2m2 0h1m2 0h2m1 0h1m1 0h1M5 24h1m1 0h7m4 0h7m1 0h1M5 25h1m1 0h2m1 0h1m1 0h1m1 0h4m1 0h1m1 0h1m1 0h2m1 0h1M6 26h1m2 0h2m2 0h1m1 0h2m1 0h1m2 0h2m2 0h1M7 27h2m2 0h1m2 0h1m2 0h1m2 0h1m2 0h2M9 28h4m2 0h2m2 0h4m-10 1h1m4 0h1m-5 1h1m2 0h1m-3 1h2"/><path stroke="#483d8b" d="M15 1h1m-2 1h2m-3 1h2m-3 1h2m-3 1h2m-2 1h1m-6 4h2m-3 1h2m-3 1h2m-3 1h2m-3 1h2m-3 1h2m-2 1h2m-1 1h2m-1 1h2m-1 1h2m-1 1h2m-1 1h2m3 4h1m-1 1h2m-1 1h2m-1 1h2m-1 1h2m-1 1h1"/><path stroke="#281c6e" d="M16 1h1m-1 1h2m-1 1h2m-1 1h2m-1 1h2m-1 1h1m3 4h2m-1 1h2m-1 1h2m-1 1h2m-1 1h2m-1 1h2m-2 1h2m-3 1h2m-3 1h2m-3 1h2m-3 1h2m-3 1h2m-6 4h1m-2 1h2m-3 1h2m-3 1h2m-3 1h2m-2 1h1"/><path stroke="#6495ed" d="M9 4h2M7 5h2M6 6h1m2 0h1M6 7h1M5 8h1m1 0h1M5 9h1M5 22h1m-1 1h1m1 0h1m-2 1h1m-1 1h1m2 0h1m-3 1h2m0 1h2"/><path stroke="#6a5acd" d="M15 4h1m-2 1h1m-2 1h1m-7 6h1m-2 1h1m-2 1h1m-2 1h1m-1 1h1m0 1h1m0 1h1m0 1h1m5 6h1m0 1h1m0 1h1"/><path stroke="#4b3ac7" d="M16 4h1m0 1h1m0 1h1m5 6h1m0 1h1m0 1h1m0 1h1m-1 1h1m-2 1h1m-2 1h1m-2 1h1m-7 6h1m-2 1h1m-2 1h1"/><path stroke="#4579f8" d="M21 4h2m0 1h2m-3 1h1m2 0h1m-1 1h1m-2 1h1m1 0h1m-1 1h1m-1 13h1m-3 1h1m1 0h1m-2 1h1m-4 1h1m2 0h1m-3 1h2m-4 1h2"/><path stroke="#4169e1" d="M14 7h2m-3 1h2m-3 1h3m-2 1h1m-4 1h1m2 0h1m-5 1h3m-4 1h2m1 0h1m-4 1h1m-1 1h1m-1 1h1m-1 1h1m-1 1h2m1 0h1m-3 1h3m-2 1h2m0 1h1m-1 1h2m-1 1h2m-1 1h2"/><path stroke="#204ae6" d="M16 7h2m-1 1h2m-2 1h3m-2 1h1m-1 1h1m2 0h1m-2 1h3m-3 1h1m1 0h2m-1 1h1m-1 1h1m-1 1h1m-1 1h1m-4 1h1m1 0h2m-4 1h3m-3 1h2m-3 1h1m-2 1h2m-3 1h2m-3 1h2"/><path stroke="#87ceeb" d="M10 8h2M9 9h1m-1 1h1M9 21h1m-1 1h1m0 1h2"/><path stroke="#6ac8f5" d="M20 8h2m0 1h1m-1 1h1m-1 11h1m-1 1h1m-3 1h2"/><path stroke="#1e90ff" d="M15 10h1m-1 1h1m-2 1h1m-2 1h1m-4 1h1m1 0h1m-2 1h1m3 0h1m-6 1h1m4 0h1m-6 1h1m1 0h1m0 1h1m0 1h1m-2 1h1m1 0h1m-1 1h1"/><path stroke="#0073ff" d="M16 10h1m-1 1h1m0 1h1m0 1h1m0 1h1m1 0h1m-6 1h1m3 0h1m-5 1h1m4 0h1m-3 1h1m1 0h1m-4 1h1m-2 1h1m-2 1h1m1 0h1m-3 1h1"/><path stroke="#00bfff" d="M15 13h1m-2 1h1m-2 1h1m-1 1h1m0 1h1"/><path stroke="#00b1ff" d="M16 13h1m0 1h1m0 1h1m-1 1h1m-2 1h1"/></svg>